<svg width="90" height="90" viewBox="0 0 90 90" fill="none" xmlns="http://www.w3.org/2000/svg">
<path fill-rule="evenodd" clip-rule="evenodd" d="M57.0713 26.1334C57.3325 25.8715 57.6429 25.6637 57.9846 25.5219C58.3263 25.3801 58.6926 25.3071 59.0625 25.3071C59.4325 25.3071 59.7988 25.3801 60.1405 25.5219C60.4821 25.6637 60.7925 25.8715 61.0538 26.1334L77.9288 43.0084C78.1907 43.2697 78.3985 43.58 78.5403 43.9217C78.6821 44.2634 78.755 44.6297 78.755 44.9997C78.755 45.3696 78.6821 45.7359 78.5403 46.0776C78.3985 46.4193 78.1907 46.7296 77.9288 46.9909L61.0538 63.8659C60.5257 64.394 59.8094 64.6907 59.0625 64.6907C58.3157 64.6907 57.5994 64.394 57.0713 63.8659C56.5432 63.3378 56.2465 62.6215 56.2465 61.8747C56.2465 61.1278 56.5432 60.4115 57.0713 59.8834L71.9606 44.9997L57.0713 30.1159C56.8094 29.8546 56.6016 29.5443 56.4598 29.2026C56.318 28.8609 56.245 28.4946 56.245 28.1247C56.245 27.7547 56.318 27.3884 56.4598 27.0467C56.6016 26.705 56.8094 26.3947 57.0713 26.1334Z" fill="white"/>
<path fill-rule="evenodd" clip-rule="evenodd" d="M11.25 45C11.25 44.2541 11.5463 43.5387 12.0738 43.0113C12.6012 42.4838 13.3166 42.1875 14.0625 42.1875H73.125C73.8709 42.1875 74.5863 42.4838 75.1137 43.0113C75.6412 43.5387 75.9375 44.2541 75.9375 45C75.9375 45.7459 75.6412 46.4613 75.1137 46.9887C74.5863 47.5162 73.8709 47.8125 73.125 47.8125H14.0625C13.3166 47.8125 12.6012 47.5162 12.0738 46.9887C11.5463 46.4613 11.25 45.7459 11.25 45Z" fill="white"/>
</svg>
